<svg xmlns="http://www.w3.org/2000/svg" xmlns:xlink="http://www.w3.org/1999/xlink" width="1366" zoomAndPan="magnify" viewBox="0 0 1024.5 576" height="768" preserveAspectRatio="xMidYMid meet" version="1.0"><defs><clipPath id="bbac00255e"><path d="M 0 0.140625 L 1024 0.140625 L 1024 575.859375 L 0 575.859375 Z M 0 0.140625 " clip-rule="nonzero"/></clipPath><clipPath id="d4459af0ca"><path d="M 240.96875 9.296875 L 782.953125 9.296875 L 782.953125 551.285156 L 240.96875 551.285156 Z M 240.96875 9.296875 " clip-rule="nonzero"/></clipPath></defs><g clip-path="url(#bbac00255e)"><path fill="#ffffff" d="M 0 0.140625 L 1024 0.140625 L 1024 575.859375 L 0 575.859375 Z M 0 0.140625 " fill-opacity="1" fill-rule="nonzero"/><path fill="#ffffff" d="M 0 0.140625 L 1024 0.140625 L 1024 575.859375 L 0 575.859375 Z M 0 0.140625 " fill-opacity="1" fill-rule="nonzero"/></g><g clip-path="url(#d4459af0ca)"><path fill="#f49454" d="M 511.996094 9.296875 C 362.253906 9.296875 240.96875 130.582031 240.96875 280.324219 C 240.96875 430.070312 362.253906 551.355469 511.996094 551.355469 C 661.738281 551.355469 783.023438 430.070312 783.023438 280.324219 C 783.023438 130.582031 661.738281 9.296875 511.996094 9.296875 Z M 511.996094 497.148438 C 392.472656 497.148438 295.175781 399.847656 295.175781 280.324219 C 295.175781 160.804688 392.472656 63.503906 511.996094 63.503906 C 631.519531 63.503906 728.820312 160.804688 728.820312 280.324219 C 728.820312 399.847656 631.519531 497.148438 511.996094 497.148438 Z M 511.996094 497.148438 " fill-opacity="1" fill-rule="nonzero"/></g></svg>